<svg id="Layer_1" data-name="Layer 1" xmlns="http://www.w3.org/2000/svg" viewBox="0 0 48 48"><defs><style>.cls-1{fill:none;stroke:#000;stroke-linecap:round;stroke-linejoin:round;stroke-width:2px;}</style></defs><title>hospital</title><path class="cls-1" d="M16,4H32a2,2,0,0,1,2,2V44a0,0,0,0,1,0,0H14a0,0,0,0,1,0,0V6A2,2,0,0,1,16,4Z"/><line class="cls-1" x1="24" y1="8" x2="24" y2="16"/><line class="cls-1" x1="28" y1="12" x2="20" y2="12"/><line class="cls-1" x1="18" y1="19" x2="22" y2="19"/><line class="cls-1" x1="26" y1="19" x2="30" y2="19"/><line class="cls-1" x1="18" y1="24" x2="22" y2="24"/><line class="cls-1" x1="26" y1="24" x2="30" y2="24"/><line class="cls-1" x1="18" y1="29" x2="22" y2="29"/><line class="cls-1" x1="26" y1="29" x2="30" y2="29"/><line class="cls-1" x1="35" y1="24" x2="38" y2="24"/><line class="cls-1" x1="35" y1="28" x2="38" y2="28"/><path class="cls-1" d="M22,33h3a2,2,0,0,1,2,2v9a0,0,0,0,1,0,0H20a0,0,0,0,1,0,0V35A2,2,0,0,1,22,33Z"/><path class="cls-1" d="M34,14h6a2,2,0,0,1,2,2V44a0,0,0,0,1,0,0H34a0,0,0,0,1,0,0V14A0,0,0,0,1,34,14Z"/><line class="cls-1" x1="10" y1="24" x2="14" y2="24"/><line class="cls-1" x1="10" y1="28" x2="14" y2="28"/><path class="cls-1" d="M8,14h6a0,0,0,0,1,0,0V44a0,0,0,0,1,0,0H6a0,0,0,0,1,0,0V16A2,2,0,0,1,8,14Z"/><rect class="cls-1" x="-360" y="-292" width="700" height="700"/></svg>