<?xml version="1.0" encoding="iso-8859-1"?>
<!-- Generator: Adobe Illustrator 23.0.5, SVG Export Plug-In . SVG Version: 6.00 Build 0)  -->
<svg version="1.1" xmlns="http://www.w3.org/2000/svg" xmlns:xlink="http://www.w3.org/1999/xlink" x="0px" y="0px"
	 viewBox="0 0 492 492" style="enable-background:new 0 0 492 492;" xml:space="preserve">
<g id="Master_Layer_2">
</g>
<g id="Layer_1">
	<g>
		<g>
			<g>
				<g>
					<g>
						<g>
							<path style="fill-rule:evenodd;clip-rule:evenodd;fill:#212121;" d="M253.964,387.032c-1.512,0-3.024-0.6-4.152-1.776
								c-2.208-2.304-2.112-5.952,0.192-8.136c11.424-10.92,20.88-25.176,27.36-41.256c6.84-16.944,10.32-35.28,10.32-54.456
								c0-19.176-3.48-37.488-10.32-54.456c-6.48-16.08-15.96-30.336-27.36-41.256c-2.304-2.208-2.376-5.856-0.192-8.136
								c2.208-2.304,5.856-2.376,8.136-0.192c12.576,12.048,22.992,27.696,30.096,45.264c7.392,18.336,11.16,38.112,11.16,58.752
								c0,20.664-3.744,40.416-11.16,58.752c-7.104,17.568-17.496,33.24-30.096,45.264
								C256.82,386.504,255.404,387.032,253.964,387.032z"/>
						</g>
					</g>
					<g>
						<g>
							<path style="fill-rule:evenodd;clip-rule:evenodd;fill:#212121;" d="M245.54,387.392c-3.192,0-5.76-2.568-5.76-5.76V181.184
								c0-3.192,2.568-5.76,5.76-5.76c3.192,0,5.76,2.568,5.76,5.76v200.448C251.3,384.824,248.708,387.392,245.54,387.392z"/>
						</g>
					</g>
					<g>
						<g>
							<path style="fill-rule:evenodd;clip-rule:evenodd;fill:#212121;" d="M237.092,387.032c-1.44,0-2.856-0.528-3.984-1.608
								c-12.576-12.048-22.992-27.696-30.096-45.264c-7.392-18.336-11.16-38.112-11.16-58.752c0-20.664,3.744-40.416,11.16-58.752
								c7.104-17.568,17.496-33.24,30.096-45.264c2.304-2.208,5.952-2.112,8.136,0.192s2.112,5.952-0.192,8.136
								c-11.424,10.92-20.88,25.176-27.36,41.256c-6.84,16.944-10.32,35.28-10.32,54.456s3.48,37.488,10.32,54.456
								c6.48,16.08,15.96,30.336,27.36,41.256c2.304,2.208,2.376,5.856,0.192,8.136
								C240.116,386.456,238.604,387.032,237.092,387.032z"/>
						</g>
					</g>
					<g>
						<g>
							<path style="fill-rule:evenodd;clip-rule:evenodd;fill:#212121;" d="M323.036,350.696c-1.056,0-2.112-0.288-3.048-0.888
								c-10.368-6.504-21.888-11.568-34.296-15.048c-12.864-3.624-26.376-5.448-40.176-5.448c-13.776,0-27.312,1.824-40.176,5.448
								c-12.408,3.48-23.928,8.544-34.296,15.048c-2.688,1.68-6.24,0.888-7.944-1.824c-1.68-2.688-0.888-6.24,1.824-7.944
								c11.28-7.08,23.832-12.6,37.296-16.368c13.872-3.912,28.44-5.88,43.296-5.88c14.832,0,29.4,1.968,43.296,5.88
								c13.464,3.792,26.016,9.288,37.296,16.368c2.688,1.68,3.504,5.256,1.824,7.944
								C326.828,349.736,324.956,350.696,323.036,350.696z"/>
						</g>
					</g>
					<g>
						<g>
							<path style="fill-rule:evenodd;clip-rule:evenodd;fill:#212121;" d="M345.764,287.168H145.316c-3.192,0-5.76-2.568-5.76-5.76
								s2.568-5.76,5.76-5.76h200.448c3.192,0,5.76,2.568,5.76,5.76S348.932,287.168,345.764,287.168z"/>
						</g>
					</g>
					<g>
						<g>
							<path style="fill-rule:evenodd;clip-rule:evenodd;fill:#212121;" d="M245.54,244.16c-14.736,0-29.184-1.944-42.984-5.808
								c-13.368-3.72-25.848-9.168-37.104-16.152c-2.712-1.68-3.528-5.232-1.848-7.944c1.68-2.712,5.232-3.528,7.944-1.848
								c10.32,6.408,21.792,11.4,34.128,14.832c12.792,3.576,26.208,5.376,39.888,5.376c13.68,0,27.096-1.8,39.888-5.376
								c12.312-3.432,23.808-8.424,34.128-14.832c2.712-1.68,6.264-0.84,7.944,1.848c1.68,2.712,0.84,6.264-1.848,7.944
								c-11.256,6.984-23.736,12.432-37.104,16.152C274.724,242.216,260.252,244.16,245.54,244.16z"/>
						</g>
					</g>
					<g>
						<g>
							<path style="fill-rule:evenodd;clip-rule:evenodd;fill:#212121;" d="M245.54,387.392c-14.304,0-28.176-2.808-41.256-8.328
								c-12.624-5.328-23.952-12.984-33.696-22.704c-9.72-9.72-17.376-21.072-22.704-33.696c-5.52-13.08-8.328-26.952-8.328-41.256
								s2.784-28.176,8.328-41.256c5.328-12.624,12.984-23.952,22.704-33.696c9.72-9.72,21.072-17.376,33.696-22.704
								c13.08-5.52,26.952-8.328,41.256-8.328c14.304,0,28.176,2.808,41.256,8.328c12.624,5.328,23.952,12.984,33.696,22.704
								c9.744,9.72,17.376,21.072,22.704,33.696c5.52,13.08,8.328,26.952,8.328,41.256s-2.808,28.176-8.328,41.256
								c-5.328,12.624-12.984,23.952-22.704,33.696s-21.072,17.376-33.696,22.704C273.716,384.584,259.844,387.392,245.54,387.392
								L245.54,387.392z M245.54,186.944c-12.744,0-25.128,2.496-36.768,7.416c-11.256,4.752-21.36,11.568-30.024,20.256
								c-8.688,8.688-15.48,18.792-20.256,30.024c-4.92,11.64-7.416,24.024-7.416,36.768s2.496,25.128,7.416,36.768
								c4.752,11.256,11.568,21.36,20.256,30.024c8.688,8.688,18.792,15.48,30.024,20.256c11.64,4.92,24.024,7.416,36.768,7.416
								c12.744,0,25.128-2.496,36.768-7.416c11.256-4.752,21.36-11.568,30.024-20.256c8.688-8.688,15.48-18.792,20.256-30.024
								c4.92-11.64,7.416-24.024,7.416-36.768s-2.496-25.128-7.416-36.768c-4.752-11.256-11.568-21.36-20.256-30.024
								c-8.688-8.688-18.792-15.48-30.024-20.256C270.644,189.44,258.284,186.944,245.54,186.944z"/>
						</g>
					</g>
				</g>
				<g>
					<g>
						<g>
							<path style="fill-rule:evenodd;clip-rule:evenodd;fill:#212121;" d="M145.436,282.248c-3.192,0-5.76-2.568-5.76-5.76v-40.704
								c0-14.016-11.4-25.44-25.44-25.44l-46.536,0c-3.192,0-5.76-2.568-5.76-5.76c0-3.192,2.568-5.76,5.76-5.76h46.536
								c20.376,0,36.96,16.584,36.96,36.96v40.704C151.196,279.68,148.604,282.248,145.436,282.248z"/>
						</g>
					</g>
					<g>
						<g>
							<path style="fill-rule:evenodd;clip-rule:evenodd;fill:#212121;" d="M112.316,246.296h-8.664
								c-22.992,0-41.712-18.72-41.712-41.712c0-3.192,2.568-5.76,5.76-5.76c3.192,0,5.76,2.568,5.76,5.76
								c0,16.656,13.536,30.192,30.192,30.192h8.664c3.192,0,5.76,2.568,5.76,5.76C118.076,243.728,115.508,246.296,112.316,246.296
								z"/>
						</g>
					</g>
					<g>
						<g>
							<path style="fill-rule:evenodd;clip-rule:evenodd;fill:#212121;" d="M146.756,281.864h-16.752
								c-22.992,0-41.712-18.72-41.712-41.712c0-3.192,2.568-5.76,5.76-5.76s5.76,2.568,5.76,5.76
								c0,16.656,13.536,30.192,30.192,30.192h16.752c3.192,0,5.76,2.568,5.76,5.76S149.948,281.864,146.756,281.864z"/>
						</g>
					</g>
				</g>
				<g>
					<g>
						<g>
							<path style="fill-rule:evenodd;clip-rule:evenodd;fill:#212121;" d="M347.084,282.248c-3.192,0-5.76-2.568-5.76-5.76v-40.704
								c0-20.376,16.584-36.96,36.96-36.96l46.536,0c3.192,0,5.76,2.568,5.76,5.76c0,3.192-2.568,5.76-5.76,5.76h-46.536
								c-14.016,0-25.44,11.4-25.44,25.44v40.704C352.844,279.68,350.276,282.248,347.084,282.248z"/>
						</g>
					</g>
					<g>
						<g>
							<path style="fill-rule:evenodd;clip-rule:evenodd;fill:#212121;" d="M388.868,246.296h-8.664c-3.192,0-5.76-2.568-5.76-5.76
								c0-3.192,2.568-5.76,5.76-5.76h8.664c16.656,0,30.192-13.536,30.192-30.192c0-3.192,2.568-5.76,5.76-5.76
								c3.192,0,5.76,2.568,5.76,5.76C430.58,227.6,411.86,246.296,388.868,246.296z"/>
						</g>
					</g>
					<g>
						<g>
							<path style="fill-rule:evenodd;clip-rule:evenodd;fill:#212121;" d="M362.516,281.864h-16.752c-3.192,0-5.76-2.568-5.76-5.76
								s2.568-5.76,5.76-5.76h16.752c16.656,0,30.192-13.536,30.192-30.192c0-3.192,2.568-5.76,5.76-5.76
								c3.192,0,5.76,2.568,5.76,5.76C404.228,263.144,385.508,281.864,362.516,281.864z"/>
						</g>
					</g>
				</g>
				<g>
					<g>
						<path style="fill-rule:evenodd;clip-rule:evenodd;fill:#212121;" d="M245.54,161.864c-20.664,0-40.152-2.376-54.888-6.72
							c-7.512-2.208-13.512-4.848-17.808-7.824c-3.84-2.664-8.4-7.128-8.4-13.344c0-6.216,4.56-10.68,8.4-13.344
							c4.296-2.976,10.296-5.616,17.808-7.824c14.736-4.32,34.224-6.72,54.888-6.72s40.152,2.376,54.888,6.72
							c7.512,2.208,13.512,4.848,17.808,7.824c3.84,2.664,8.4,7.128,8.4,13.344c0,6.216-4.56,10.68-8.4,13.344
							c-4.296,2.976-10.296,5.616-17.808,7.824C285.668,159.464,266.18,161.864,245.54,161.864L245.54,161.864z M245.54,117.632
							c-19.584,0-37.92,2.208-51.648,6.24c-14.64,4.296-17.928,8.856-17.928,10.104c0,1.248,3.288,5.808,17.928,10.104
							c13.704,4.032,32.064,6.24,51.648,6.24s37.92-2.208,51.648-6.24c14.64-4.296,17.928-8.856,17.928-10.104
							c0-1.248-3.288-5.808-17.928-10.104C283.46,119.84,265.124,117.632,245.54,117.632z"/>
					</g>
				</g>
			</g>
		</g>
	</g>
</g>
</svg>
